<svg width="20" height="21" viewBox="0 0 20 21" fill="none" xmlns="http://www.w3.org/2000/svg">
<path d="M10 0.625C10.2721 0.625036 10.5348 0.724957 10.7382 0.905812C10.9416 1.08667 11.0715 1.33588 11.1033 1.60617L11.1111 1.73618V19.5151C11.1108 19.7983 11.0024 20.0707 10.8079 20.2766C10.6135 20.4826 10.3478 20.6065 10.0651 20.6231C9.7824 20.6397 9.50402 20.5477 9.28685 20.3659C9.06968 20.1841 8.93012 19.9263 8.89667 19.6451L8.88889 19.5151V1.73618C8.88889 1.44148 9.00595 1.15884 9.21433 0.950457C9.4227 0.74207 9.70532 0.625 10 0.625ZM5.55556 3.95854C5.85024 3.95854 6.13286 4.07561 6.34123 4.284C6.5496 4.49238 6.66667 4.77501 6.66667 5.06972V16.1815C6.66667 16.4762 6.5496 16.7589 6.34123 16.9672C6.13286 17.1756 5.85024 17.2927 5.55556 17.2927C5.26087 17.2927 4.97826 17.1756 4.76988 16.9672C4.56151 16.7589 4.44444 16.4762 4.44444 16.1815V5.06972C4.44444 4.77501 4.56151 4.49238 4.76988 4.284C4.97826 4.07561 5.26087 3.95854 5.55556 3.95854ZM14.4444 3.95854C14.7391 3.95854 15.0217 4.07561 15.2301 4.284C15.4385 4.49238 15.5556 4.77501 15.5556 5.06972V16.1815C15.5556 16.4762 15.4385 16.7589 15.2301 16.9672C15.0217 17.1756 14.7391 17.2927 14.4444 17.2927C14.1498 17.2927 13.8671 17.1756 13.6588 16.9672C13.4504 16.7589 13.3333 16.4762 13.3333 16.1815V5.06972C13.3333 4.77501 13.4504 4.49238 13.6588 4.284C13.8671 4.07561 14.1498 3.95854 14.4444 3.95854ZM1.11111 7.29208C1.4058 7.29208 1.68841 7.40915 1.89679 7.61753C2.10516 7.82592 2.22222 8.10855 2.22222 8.40326V12.848C2.22222 13.1427 2.10516 13.4253 1.89679 13.6337C1.68841 13.8421 1.4058 13.9592 1.11111 13.9592C0.816426 13.9592 0.533811 13.8421 0.325437 13.6337C0.117063 13.4253 0 13.1427 0 12.848V8.40326C0 8.10855 0.117063 7.82592 0.325437 7.61753C0.533811 7.40915 0.816426 7.29208 1.11111 7.29208ZM18.8889 7.29208C19.161 7.29211 19.4237 7.39203 19.6271 7.57289C19.8305 7.75374 19.9604 8.00295 19.9922 8.27325L20 8.40326V12.848C19.9997 13.1312 19.8912 13.4036 19.6968 13.6095C19.5024 13.8155 19.2367 13.9394 18.954 13.956C18.6713 13.9726 18.3929 13.8806 18.1757 13.6988C17.9586 13.5171 17.819 13.2592 17.7856 12.978L17.7778 12.848V8.40326C17.7778 8.10855 17.8948 7.82592 18.1032 7.61753C18.3116 7.40915 18.5942 7.29208 18.8889 7.29208Z" fill="black"/>
</svg>
