<svg width="22" height="21" viewBox="0 0 22 21" fill="none" xmlns="http://www.w3.org/2000/svg">
<path d="M13.619 4.29605C14.522 4.29605 15.3881 3.93562 16.0266 3.29405C16.6651 2.65248 17.0238 1.78232 17.0238 0.875H18.5952C18.5952 1.78232 18.954 2.65248 19.5925 3.29405C20.231 3.93562 21.097 4.29605 22 4.29605V5.875C21.097 5.875 20.231 6.23543 19.5925 6.877C18.954 7.51858 18.5952 8.38873 18.5952 9.29605H17.0238C17.0238 8.38873 16.6651 7.51858 16.0266 6.877C15.3881 6.23543 14.522 5.875 13.619 5.875V4.29605ZM2.09524 6.13816C2.09524 5.57981 2.31599 5.04433 2.70892 4.64951C3.10185 4.2547 3.63478 4.03289 4.19048 4.03289H11.5238V1.92763H4.19048C3.07909 1.92763 2.01323 2.37124 1.22736 3.16087C0.441495 3.95049 0 5.02146 0 6.13816V16.6645C0 17.7812 0.441495 18.8521 1.22736 19.6418C2.01323 20.4314 3.07909 20.875 4.19048 20.875H16.7619C17.8733 20.875 18.9392 20.4314 19.725 19.6418C20.5109 18.8521 20.9524 17.7812 20.9524 16.6645V11.4013H18.8571V16.6645C18.8571 17.2228 18.6364 17.7583 18.2435 18.1531C17.8505 18.5479 17.3176 18.7697 16.7619 18.7697H4.19048C3.63478 18.7697 3.10185 18.5479 2.70892 18.1531C2.31599 17.7583 2.09524 17.2228 2.09524 16.6645V6.13816Z" fill="black"/>
</svg>
