<svg width="23" height="25" viewBox="0 0 23 25" fill="none" xmlns="http://www.w3.org/2000/svg">
<g id="Group">
<path id="Vector" d="M11.5002 15.716C13.3454 15.716 14.8413 14.2202 14.8413 12.375C14.8413 10.5298 13.3454 9.03394 11.5002 9.03394C9.65502 9.03394 8.15918 10.5298 8.15918 12.375C8.15918 14.2202 9.65502 15.716 11.5002 15.716Z" stroke="white" stroke-width="1.5"/>
<path id="Vector_2" d="M13.4656 1.40756C13.0569 1.23828 12.538 1.23828 11.5 1.23828C10.462 1.23828 9.94307 1.23828 9.53435 1.40756C9.26393 1.5195 9.01822 1.68364 8.81126 1.89059C8.60431 2.09754 8.44017 2.34326 8.32823 2.61368C8.22578 2.86203 8.18457 3.1527 8.16898 3.57479C8.16204 3.87992 8.07766 4.17829 7.92376 4.44187C7.76986 4.70544 7.55149 4.92558 7.28917 5.0816C7.02288 5.23088 6.72302 5.31002 6.41775 5.31157C6.11248 5.31313 5.81182 5.23706 5.54403 5.09051C5.16983 4.89227 4.89921 4.78313 4.63081 4.74749C4.04537 4.6705 3.45331 4.82913 2.98479 5.18851C2.63509 5.45914 2.37449 5.90795 1.85551 6.80669C1.33654 7.70543 1.07594 8.15425 1.01914 8.59415C0.980867 8.88421 1.00012 9.17897 1.07579 9.46159C1.15146 9.74421 1.28207 10.0092 1.46016 10.2413C1.62498 10.4551 1.85551 10.6344 2.21301 10.8594C2.73978 11.1901 3.07834 11.7537 3.07834 12.3751C3.07834 12.9965 2.73978 13.5601 2.21301 13.8897C1.85551 14.1158 1.62387 14.2951 1.46016 14.5089C1.28207 14.741 1.15146 15.006 1.07579 15.2886C1.00012 15.5712 0.980867 15.866 1.01914 16.1561C1.07705 16.5948 1.33654 17.0448 1.8544 17.9435C2.37449 18.8423 2.63398 19.2911 2.98479 19.5617C3.21692 19.7398 3.48186 19.8704 3.76448 19.9461C4.0471 20.0217 4.34186 20.041 4.63192 20.0027C4.89921 19.9671 5.16983 19.8579 5.54403 19.6597C5.81182 19.5131 6.11248 19.4371 6.41775 19.4386C6.72302 19.4402 7.02288 19.5193 7.28917 19.6686C7.82708 19.9804 8.1467 20.554 8.16898 21.1754C8.18457 21.5986 8.22466 21.8882 8.32823 22.1365C8.44017 22.4069 8.60431 22.6527 8.81126 22.8596C9.01822 23.0666 9.26393 23.2307 9.53435 23.3426C9.94307 23.5119 10.462 23.5119 11.5 23.5119C12.538 23.5119 13.0569 23.5119 13.4656 23.3426C13.7361 23.2307 13.9818 23.0666 14.1887 22.8596C14.3957 22.6527 14.5598 22.4069 14.6718 22.1365C14.7742 21.8882 14.8154 21.5986 14.831 21.1754C14.8533 20.554 15.1729 19.9793 15.7108 19.6686C15.9771 19.5193 16.277 19.4402 16.5823 19.4386C16.8875 19.4371 17.1882 19.5131 17.456 19.6597C17.8302 19.8579 18.1008 19.9671 18.3681 20.0027C18.6581 20.041 18.9529 20.0217 19.2355 19.9461C19.5181 19.8704 19.7831 19.7398 20.0152 19.5617C20.366 19.2922 20.6255 18.8423 21.1445 17.9435C21.6635 17.0448 21.9241 16.596 21.9809 16.1561C22.0191 15.866 21.9999 15.5712 21.9242 15.2886C21.8485 15.006 21.7179 14.741 21.5398 14.5089C21.375 14.2951 21.1445 14.1158 20.787 13.8908C20.5261 13.7322 20.3098 13.5099 20.1584 13.2448C20.0071 12.9797 19.9256 12.6804 19.9217 12.3751C19.9217 11.7537 20.2602 11.1901 20.787 10.8605C21.1445 10.6344 21.3761 10.4551 21.5398 10.2413C21.7179 10.0092 21.8485 9.74421 21.9242 9.46159C21.9999 9.17897 22.0191 8.88421 21.9809 8.59415C21.9229 8.15536 21.6635 7.70543 21.1456 6.80669C20.6255 5.90795 20.366 5.45914 20.0152 5.18851C19.7831 5.01042 19.5181 4.87981 19.2355 4.80414C18.9529 4.72847 18.6581 4.70922 18.3681 4.74749C18.1008 4.78313 17.8302 4.89227 17.4549 5.09051C17.1872 5.23686 16.8867 5.31282 16.5817 5.31127C16.2766 5.30971 15.977 5.23068 15.7108 5.0816C15.4485 4.92558 15.2301 4.70544 15.0762 4.44187C14.9223 4.17829 14.838 3.87992 14.831 3.57479C14.8154 3.15159 14.7753 2.86203 14.6718 2.61368C14.5598 2.34326 14.3957 2.09754 14.1887 1.89059C13.9818 1.68364 13.7361 1.5195 13.4656 1.40756Z" stroke="white" stroke-width="1.5"/>
</g>
</svg>
