<svg width="23" height="25" viewBox="0 0 23 25" fill="none" xmlns="http://www.w3.org/2000/svg">
<g id="Group">
<path id="Vector" d="M11.5002 15.716C13.3454 15.716 14.8413 14.2202 14.8413 12.375C14.8413 10.5298 13.3454 9.03394 11.5002 9.03394C9.65502 9.03394 8.15918 10.5298 8.15918 12.375C8.15918 14.2202 9.65502 15.716 11.5002 15.716Z" stroke="black" stroke-width="1.5"/>
<path id="Vector_2" d="M13.4656 1.40744C13.0569 1.23816 12.538 1.23816 11.5 1.23816C10.462 1.23816 9.94307 1.23816 9.53435 1.40744C9.26393 1.51938 9.01822 1.68352 8.81126 1.89047C8.60431 2.09742 8.44017 2.34313 8.32823 2.61356C8.22578 2.86191 8.18457 3.15258 8.16898 3.57466C8.16204 3.8798 8.07766 4.17817 7.92376 4.44174C7.76986 4.70532 7.55149 4.92546 7.28917 5.08148C7.02288 5.23076 6.72302 5.30989 6.41775 5.31145C6.11248 5.31301 5.81182 5.23694 5.54403 5.09039C5.16983 4.89215 4.89921 4.78301 4.63081 4.74737C4.04537 4.67038 3.45331 4.82901 2.98479 5.18839C2.63509 5.45901 2.37449 5.90783 1.85551 6.80657C1.33654 7.70531 1.07594 8.15412 1.01914 8.59403C0.980867 8.88409 1.00012 9.17885 1.07579 9.46147C1.15146 9.74409 1.28207 10.009 1.46016 10.2412C1.62498 10.455 1.85551 10.6343 2.21301 10.8593C2.73978 11.19 3.07834 11.7535 3.07834 12.375C3.07834 12.9964 2.73978 13.5599 2.21301 13.8896C1.85551 14.1157 1.62387 14.295 1.46016 14.5088C1.28207 14.7409 1.15146 15.0059 1.07579 15.2885C1.00012 15.5711 0.980867 15.8659 1.01914 16.1559C1.07705 16.5947 1.33654 17.0446 1.8544 17.9434C2.37449 18.8421 2.63398 19.2909 2.98479 19.5616C3.21692 19.7397 3.48186 19.8703 3.76448 19.9459C4.0471 20.0216 4.34186 20.0409 4.63192 20.0026C4.89921 19.967 5.16983 19.8578 5.54403 19.6596C5.81182 19.513 6.11248 19.4369 6.41775 19.4385C6.72302 19.4401 7.02288 19.5192 7.28917 19.6685C7.82708 19.9803 8.1467 20.5539 8.16898 21.1753C8.18457 21.5985 8.22466 21.8881 8.32823 22.1364C8.44017 22.4068 8.60431 22.6525 8.81126 22.8595C9.01822 23.0664 9.26393 23.2306 9.53435 23.3425C9.94307 23.5118 10.462 23.5118 11.5 23.5118C12.538 23.5118 13.0569 23.5118 13.4656 23.3425C13.7361 23.2306 13.9818 23.0664 14.1887 22.8595C14.3957 22.6525 14.5598 22.4068 14.6718 22.1364C14.7742 21.8881 14.8154 21.5985 14.831 21.1753C14.8533 20.5539 15.1729 19.9792 15.7108 19.6685C15.9771 19.5192 16.277 19.4401 16.5823 19.4385C16.8875 19.4369 17.1882 19.513 17.456 19.6596C17.8302 19.8578 18.1008 19.967 18.3681 20.0026C18.6581 20.0409 18.9529 20.0216 19.2355 19.9459C19.5181 19.8703 19.7831 19.7397 20.0152 19.5616C20.366 19.2921 20.6255 18.8421 21.1445 17.9434C21.6635 17.0446 21.9241 16.5958 21.9809 16.1559C22.0191 15.8659 21.9999 15.5711 21.9242 15.2885C21.8485 15.0059 21.7179 14.7409 21.5398 14.5088C21.375 14.295 21.1445 14.1157 20.787 13.8907C20.5261 13.7321 20.3098 13.5098 20.1584 13.2447C20.0071 12.9795 19.9256 12.6803 19.9217 12.375C19.9217 11.7535 20.2602 11.19 20.787 10.8604C21.1445 10.6343 21.3761 10.455 21.5398 10.2412C21.7179 10.009 21.8485 9.74409 21.9242 9.46147C21.9999 9.17885 22.0191 8.88409 21.9809 8.59403C21.9229 8.15524 21.6635 7.70531 21.1456 6.80657C20.6255 5.90783 20.366 5.45901 20.0152 5.18839C19.7831 5.0103 19.5181 4.87969 19.2355 4.80402C18.9529 4.72835 18.6581 4.7091 18.3681 4.74737C18.1008 4.78301 17.8302 4.89215 17.4549 5.09039C17.1872 5.23674 16.8867 5.3127 16.5817 5.31114C16.2766 5.30959 15.977 5.23056 15.7108 5.08148C15.4485 4.92546 15.2301 4.70532 15.0762 4.44174C14.9223 4.17817 14.838 3.8798 14.831 3.57466C14.8154 3.15146 14.7753 2.86191 14.6718 2.61356C14.5598 2.34313 14.3957 2.09742 14.1887 1.89047C13.9818 1.68352 13.7361 1.51938 13.4656 1.40744Z" stroke="black" stroke-width="1.5"/>
</g>
</svg>
