<svg width="22" height="23" viewBox="0 0 22 23" fill="none" xmlns="http://www.w3.org/2000/svg">
<path id="Vector" d="M17.0877 19.0753L14.8547 16.8407C13.753 17.6983 12.3962 18.163 11 18.1607C9.60384 18.163 8.247 17.6983 7.14529 16.8407L4.91229 19.0753C6.61269 20.5171 8.77059 21.307 11 21.3036C13.321 21.3036 15.4471 20.4644 17.0877 19.0753ZM18.2003 17.9627C19.6421 16.2623 20.432 14.1044 20.4286 11.875C20.4286 9.554 19.5894 7.42786 18.2003 5.78729L15.9657 8.02029C16.7923 9.08571 17.2857 10.423 17.2857 11.875C17.2857 13.327 16.7923 14.6643 15.9657 15.7297L18.2003 17.9627ZM17.0877 4.67471C15.3873 3.23288 13.2294 2.44303 11 2.44643C8.679 2.44643 6.55286 3.28557 4.91229 4.67471L7.14529 6.90929C8.247 6.05167 9.60384 5.58704 11 5.58929C12.452 5.58929 13.7893 6.08271 14.8547 6.90929L17.0877 4.67471ZM3.79971 5.78729C2.35788 7.48769 1.56803 9.64559 1.57143 11.875C1.57143 14.196 2.41057 16.3221 3.79971 17.9627L6.03429 15.7297C5.17667 14.628 4.71204 13.2712 4.71429 11.875C4.71429 10.423 5.20771 9.08571 6.03429 8.02029L3.79971 5.78729ZM14.0454 15.4736C14.2446 15.3046 14.4296 15.1196 14.5986 14.9204C15.2947 14.0986 15.7143 13.0347 15.7143 11.875C15.7156 11.1897 15.5668 10.5125 15.2785 9.89083C14.9902 9.26916 14.5693 8.71813 14.0454 8.27643C13.195 7.55472 12.1154 7.15922 11 7.16071C10.3147 7.15944 9.6375 7.30817 9.01583 7.59648C8.39416 7.88478 7.84313 8.30566 7.40143 8.82957C6.70529 9.65143 6.28571 10.7153 6.28571 11.875C6.28444 12.5603 6.43317 13.2375 6.72148 13.8592C7.00978 14.4808 7.43066 15.0319 7.95457 15.4736C8.77643 16.1697 9.84029 16.5893 11 16.5893C12.1613 16.5893 13.2236 16.1697 14.0454 15.4736ZM11 22.875C8.08262 22.875 5.28473 21.7161 3.22183 19.6532C1.15893 17.5903 0 14.7924 0 11.875C0 8.95762 1.15893 6.15973 3.22183 4.09683C5.28473 2.03393 8.08262 0.875 11 0.875C13.9174 0.875 16.7153 2.03393 18.7782 4.09683C20.8411 6.15973 22 8.95762 22 11.875C22 14.7924 20.8411 17.5903 18.7782 19.6532C16.7153 21.7161 13.9174 22.875 11 22.875Z" fill="white"/>
</svg>
