<svg width="20" height="25" viewBox="0 0 20 25" fill="none" xmlns="http://www.w3.org/2000/svg">
<path d="M10 11.5682L7.76429 13.1814C7.63952 13.2579 7.51952 13.2593 7.40429 13.1854C7.28905 13.1115 7.25524 13.0148 7.30286 12.8952L8.14857 10.2768L5.92286 8.7862C5.80381 8.70969 5.77286 8.60856 5.83 8.48281C5.88714 8.35617 5.98048 8.29286 6.11 8.29286H8.87857L9.72571 5.69027C9.77333 5.57068 9.86476 5.51088 10 5.51088C10.1352 5.51088 10.2267 5.57068 10.2743 5.69027L11.1214 8.29286H13.8814C14.0119 8.29286 14.1071 8.35617 14.1671 8.48281C14.2271 8.60944 14.1971 8.71057 14.0771 8.7862L11.8429 10.2768L12.69 12.8952C12.7376 13.0148 12.7038 13.1115 12.5886 13.1854C12.4724 13.2593 12.3524 13.2579 12.2286 13.1814L10 11.5682ZM10 22.4995L4.33857 24.0614C3.9719 24.1818 3.63333 24.1313 3.32286 23.9097C3.01238 23.688 2.85714 23.3996 2.85714 23.0443V15.784C1.95238 14.9627 1.25 14.0006 0.75 12.8978C0.25 11.7951 0 10.6153 0 9.35869C0 6.78469 0.97 4.60246 2.91 2.812C4.84905 1.02067 7.21238 0.125 10 0.125C12.7876 0.125 15.151 1.02067 17.09 2.812C19.03 4.60246 20 6.78469 20 9.35869C20 10.6153 19.75 11.7951 19.25 12.8978C18.75 14.0006 18.0476 14.9622 17.1429 15.7827V23.043C17.1429 23.3983 16.9876 23.6867 16.6771 23.9083C16.3667 24.1299 16.0286 24.1805 15.6629 24.06L10 22.4995ZM10 17.2733C12.381 17.2733 14.4048 16.5038 16.0714 14.9649C17.7381 13.4259 18.5714 11.5572 18.5714 9.35869C18.5714 7.16019 17.7381 5.29147 16.0714 3.75252C14.4048 2.21357 12.381 1.4441 10 1.4441C7.61905 1.4441 5.59524 2.21357 3.92857 3.75252C2.2619 5.29147 1.42857 7.16019 1.42857 9.35869C1.42857 11.5572 2.2619 13.4259 3.92857 14.9649C5.59524 16.5038 7.61905 17.2733 10 17.2733ZM4.28571 22.6077L10 21.1303L15.7143 22.6077V16.896C14.9171 17.4368 14.0319 17.8546 13.0586 18.1492C12.0862 18.4446 11.0667 18.5924 10 18.5924C8.93333 18.5924 7.91381 18.4446 6.94143 18.1492C5.9681 17.8554 5.08286 17.4377 4.28571 16.896V22.6077Z" fill="black"/>
</svg>
